<?xml version="1.0" standalone="no"?>
<!DOCTYPE svg PUBLIC "-//W3C//DTD SVG 20010904//EN"
 "http://www.w3.org/TR/2001/REC-SVG-20010904/DTD/svg10.dtd">
<svg version="1.0" xmlns="http://www.w3.org/2000/svg"
 width="200.000000pt" height="200.000000pt" viewBox="0 0 200.000000 200.000000"
 preserveAspectRatio="xMidYMid meet">
<metadata>
Created by potrace 1.11, written by Peter Selinger 2001-2013
</metadata>
<g transform="translate(0.000000,200.000000) scale(0.100000,-0.100000)"
fill="#000000" stroke="none">
<path d="M306 1875 c-15 -14 -26 -35 -27 -52 -4 -159 0 -864 5 -881 15 -47 45
-52 323 -52 l258 0 0 -100 0 -100 -48 0 c-40 0 -48 -3 -45 -17 3 -15 25 -17
226 -17 166 -1 226 2 234 11 12 15 -1 21 -57 25 l-39 3 -1 98 -1 97 258 0
c295 0 309 3 324 67 7 28 11 755 5 876 -1 10 -12 29 -26 42 l-24 25 -669 0
-669 0 -27 -25z m1370 -29 c21 -29 21 -873 0 -902 -14 -18 -33 -19 -674 -19
-543 0 -662 3 -676 14 -14 12 -16 57 -16 452 0 407 1 440 18 457 16 16 59 17
676 17 639 0 658 -1 672 -19z m-576 -1056 l0 -100 -100 0 -100 0 0 100 0 100
100 0 100 0 0 -100z"/>
<path d="M1046 1558 c-21 -57 -44 -116 -52 -133 -39 -89 -114 -288 -110 -292
17 -17 42 30 128 248 54 134 98 250 100 258 2 8 -4 16 -12 18 -11 2 -26 -26
-54 -99z"/>
<path d="M670 1531 c-47 -26 -114 -64 -150 -84 -36 -19 -66 -42 -68 -50 -3
-14 31 -36 208 -130 41 -22 79 -43 84 -48 16 -15 38 -10 34 7 -2 13 -210 137
-264 158 -22 8 -20 10 144 100 67 37 122 74 122 82 0 23 -20 16 -110 -35z"/>
<path d="M1222 1564 c2 -9 26 -28 53 -43 28 -14 90 -48 138 -75 102 -56 109
-42 -63 -135 -131 -72 -138 -77 -123 -92 12 -12 323 156 323 176 0 13 -25 29
-175 110 -38 21 -83 47 -100 57 -37 22 -57 23 -53 2z"/>
<path d="M590 547 c0 -9 10 -17 21 -19 45 -6 43 -28 -12 -148 -108 -232 -112
-239 -163 -255 -43 -13 4 -26 87 -23 86 3 124 20 59 26 -43 4 -48 20 -24 74
l19 44 89 -1 c49 0 95 -4 102 -9 12 -7 42 -69 42 -87 0 -5 -14 -12 -31 -16
-60 -16 -29 -28 73 -28 72 0 103 4 106 13 2 7 -5 12 -16 12 -12 0 -27 6 -35
14 -7 8 -49 93 -92 190 -43 96 -88 185 -100 196 -29 27 -125 40 -125 17z m124
-176 c20 -45 36 -86 36 -89 0 -6 -89 -7 -147 -3 -7 1 4 36 29 91 23 50 42 89
44 87 2 -1 19 -40 38 -86z"/>
<path d="M1172 541 c2 -8 12 -15 23 -17 38 -6 43 -27 41 -205 -1 -179 -4 -188
-48 -189 -10 0 -18 -7 -18 -15 0 -13 28 -15 189 -15 113 0 192 4 196 10 3 5 8
31 12 58 4 40 2 50 -11 55 -12 5 -20 -1 -28 -21 -26 -61 -45 -72 -124 -72 -70
0 -72 1 -81 27 -11 37 -8 342 4 354 5 5 20 11 33 14 12 2 25 7 28 10 14 14
-19 20 -114 20 -86 1 -104 -2 -102 -14z"/>
</g>
</svg>
